erDiagram

  txn_enriched_v2 {
    order_id string
    customer_id string
    product_id string
    amount_usd float
    local_currency string
    region string
    loyalty_tier string
    is_high_value boolean
    ingestion_ts timestamp
    source_system string
    ingest_origin string
  }

  %% Relationships
  dim_customer ||--o{ txn_enriched_v2 : "customer_id"
  dim_product ||--o{ txn_enriched_v2 : "product_id"

